<svg xmlns="http://www.w3.org/2000/svg" viewBox="0 0 128 128"><defs><linearGradient id="g" x1="0" x2="1" y1="0" y2="1"><stop stop-color="#68d391"/><stop offset="1" stop-color="#2f855a"/></linearGradient></defs><rect width="128" height="128" rx="28" fill="#151515"/><path fill="url(#g)" d="M28 30h72a8 8 0 0 1 8 8v52a8 8 0 0 1-8 8H28a8 8 0 0 1-8-8V38a8 8 0 0 1 8-8Zm8 16v36h12V46H36Zm20 0v36h12V46H56Zm20 0v36h12V46H76Z"/><circle cx="36" cy="22" r="5" fill="#68d391"/><circle cx="56" cy="22" r="5" fill="#68d391"/><circle cx="76" cy="22" r="5" fill="#68d391"/></svg>
